<svg xmlns="http://www.w3.org/2000/svg" viewBox="0 0 960 480" width="320" height="160" role="img" aria-label="Structural patterns diagram">
  <defs>
    <linearGradient id="bg" x1="0" y1="0" x2="1" y2="1">
      <stop offset="0%" stop-color="#171c26"/>
      <stop offset="100%" stop-color="#0b0d12"/>
    </linearGradient>
    <linearGradient id="accent" x1="0" y1="0" x2="1" y2="0">
      <stop offset="0%" stop-color="#60a5fa"/>
      <stop offset="100%" stop-color="#34d399"/>
    </linearGradient>
  </defs>
  <rect width="960" height="480" rx="28" fill="url(#bg)"/>
  <rect x="24" y="24" width="912" height="432" rx="22" fill="none" stroke="#ffffff" stroke-opacity="0.08"/>
  <text x="56" y="80" fill="#d6e4ff" font-size="34" font-family="JetBrains Mono, Consolas, monospace" font-weight="700">STRUCTURAL</text>
  <text x="56" y="118" fill="#9aa6c0" font-size="22" font-family="JetBrains Mono, Consolas, monospace">Adapter, Decorator, Facade, Composite</text>

  <g>
    <rect x="74" y="188" width="156" height="88" rx="18" fill="#141a26" stroke="#60a5fa" stroke-width="3"/>
    <text x="152" y="238" fill="#eff6ff" font-size="28" text-anchor="middle" font-family="JetBrains Mono, Consolas, monospace">Client</text>
  </g>

  <g>
    <rect x="305" y="132" width="220" height="60" rx="16" fill="#142032" stroke="#60a5fa" stroke-width="2"/>
    <text x="415" y="170" fill="#dbeafe" font-size="22" text-anchor="middle" font-family="JetBrains Mono, Consolas, monospace">Adapter</text>
    <rect x="305" y="214" width="220" height="60" rx="16" fill="#142032" stroke="#34d399" stroke-width="2"/>
    <text x="415" y="252" fill="#d1fae5" font-size="22" text-anchor="middle" font-family="JetBrains Mono, Consolas, monospace">Decorator</text>
    <rect x="305" y="296" width="220" height="60" rx="16" fill="#142032" stroke="#f6ad55" stroke-width="2"/>
    <text x="415" y="334" fill="#ffedd5" font-size="22" text-anchor="middle" font-family="JetBrains Mono, Consolas, monospace">Facade</text>
  </g>

  <g stroke="url(#accent)" stroke-width="4" fill="none" stroke-linecap="round" stroke-linejoin="round">
    <path d="M230 232 H292"/>
    <path d="M276 224 L292 232 L276 240"/>
    <path d="M525 162 H635"/>
    <path d="M619 154 L635 162 L619 170"/>
    <path d="M525 244 H635"/>
    <path d="M619 236 L635 244 L619 252"/>
    <path d="M525 326 H635"/>
    <path d="M619 318 L635 326 L619 334"/>
  </g>

  <g>
    <rect x="650" y="132" width="250" height="246" rx="22" fill="#11151d" stroke="#ffffff" stroke-opacity="0.08" stroke-width="2"/>
    <text x="775" y="176" fill="#f0f7ff" font-size="24" text-anchor="middle" font-family="JetBrains Mono, Consolas, monospace">Subsystem</text>
    <rect x="690" y="204" width="170" height="42" rx="10" fill="#17202b" stroke="rgba(255,255,255,0.08)"/>
    <rect x="690" y="256" width="170" height="42" rx="10" fill="#17202b" stroke="rgba(255,255,255,0.08)"/>
    <rect x="690" y="308" width="170" height="42" rx="10" fill="#17202b" stroke="rgba(255,255,255,0.08)"/>
  </g>
</svg>
